<svg id="Layer_1" data-name="Layer 1" xmlns="http://www.w3.org/2000/svg" viewBox="0 0 535.33 122.63"><defs><style>.cls-1{fill:#010101;}</style></defs><path class="cls-1" d="M30.06,12.59H46.48l.08.08.08,120.51-.09.09H30.14l-.09-.09L30,12.67Z" transform="translate(-29.97 -12.44)"/><path class="cls-1" d="M83.48,12.55h.69a10.92,10.92,0,0,1,7.13,2.8,10.08,10.08,0,0,1,3.36,7.33v.5a10.11,10.11,0,0,1-2.92,6.92,10.91,10.91,0,0,1-7.64,3.22h-.52a10.57,10.57,0,0,1-7.22-2.88A10.84,10.84,0,0,1,74,27.23a9.47,9.47,0,0,1-1-3.95v-.66a10.13,10.13,0,0,1,3.18-7.1l1.29-1.07A11.2,11.2,0,0,1,83.48,12.55Zm8.71,41.71,0,78.88-.09.09H75.65l-.08-.09-.06-78.88Z" transform="translate(-29.97 -12.44)"/><path class="cls-1" d="M166.8,133.18H145.88s-.9-1.84-2.55-5.52l-15-33.38L112.2,58.53l-1.89-4.28,18.21,0q.25.42,3.55,8.24l15,34.12L153,109.78" transform="translate(-29.97 -12.44)"/><path class="cls-1" d="M251.28,12.44H256l.08.08V28.35l-.08.08h-4.12q-10.63,0-15.33,9.91-2.88,6.09-2.87,15.83l22.33,0,.09.08V70l-.09.08H233.68l0,63-.09.08H217.81l0-63.06H202.52l-.09-.08V54.27l.09-.08h15.25v-.33q0-21.52,11.84-32.82a30.5,30.5,0,0,1,9.07-6A33.64,33.64,0,0,1,251.28,12.44Z" transform="translate(-29.97 -12.44)"/><path class="cls-1" d="M279.07,94q0,13,11.23,21.34a23,23,0,0,0,11.87,3.79H304q7.92,0,15.33-6.44A25.79,25.79,0,0,0,327.05,94v-.08q0-13.19-11.23-21.26a23.22,23.22,0,0,0-12.2-3.79H302.3q-9.89,0-17.88,9.16A27.17,27.17,0,0,0,279.07,94Zm24.38-41.07q13.76,0,23.58,10.46V54.27l.25-.17h15.58l.16.17.05,78.64-.16.16H327.32l-.25-.16v-8q-9.22,10.16-23.74,10.16h-.08q-18,0-30.67-14.57A41.4,41.4,0,0,1,263.16,94V94q0-18.13,14-31.33A39.88,39.88,0,0,1,303.45,52.88Z" transform="translate(-29.97 -12.44)"/><path class="cls-1" d="M404.3,53.56h2.06a35.22,35.22,0,0,1,16.9,4.77v.08q-3.45,15.66-3.78,16.41-7.91-5.19-14-5.19h-1.32a19.4,19.4,0,0,0-13.93,5.87Q385.69,81,385.7,96.44l0,36.27-.16.24H370.14l-.24-.24,0-77.41.24-.16h15.42l.16.16v5.94Q394.74,53.56,404.3,53.56Z" transform="translate(-29.97 -12.44)"/><path class="cls-1" d="M476.47,54h.74q16,0,25.81,9.62Q512.41,54,528.9,54h2.55q21.76,0,30.84,16.39a30.06,30.06,0,0,1,3,12.69l0,49.62-.16.25h-15.5l-.17-.25,0-49.46q0-8.89-9.9-12.27a23.8,23.8,0,0,0-7.75-1.07h-3.21q-12.86,0-16.65,8.59a13.05,13.05,0,0,0-1,5.19l0,49.05-.17.24H495.32l-.17-.24,0-47.65q0-8.82-5.69-12c-2.92-2.08-6.88-3.13-11.88-3.12h-1.31q-10.07,0-14.26,3.14-5.44,3.3-5.44,12.2l0,47.48-.24.25H440.91l-.24-.25-.05-78.06.24-.25h15.42l.24.25v4.45h.08a55.12,55.12,0,0,1,11-4.29A39.64,39.64,0,0,1,476.47,54Z" transform="translate(-29.97 -12.44)"/><path class="cls-1" d="M164.82,105.45a1.67,1.67,0,0,0,2.52,1C171.6,103.65,182,96,186.49,84c5.75-15.2-.2-31.54-.2-31.54S171,60.8,165.26,76C160.75,87.93,163.45,100.57,164.82,105.45Z" transform="translate(-29.97 -12.44)"/></svg>